Format                                   : MPEG-4
Format profile                           : Base Media
Codec ID                                 : isom
File size                                : 704 MiB
Duration                                 : 2h 16mn
Overall bit rate mode                    : Variable
Overall bit rate                         : 721 Kbps
Encoded date                             : UTC 2010-09-01 00:01:10
Tagged date                              : UTC 2010-09-01 00:01:10

Video
ID                                       : 1
Format                                   : AVC
Format/Info                              : Advanced Video Codec
Format profile                           : Baseline@L3.0
Format settings, CABAC                   : No
Format settings, ReFrames                : 1 frame
Codec ID                                 : avc1
Codec ID/Info                            : Advanced Video Coding
Duration                                 : 2h 16mn
Bit rate                                 : 600 Kbps
Maximum bit rate                         : 1 599 Kbps
Width                                    : 800 pixels
Height                                   : 448 pixels
Display aspect ratio                     : 16:9
Original display aspect ratio            : 16:9
Frame rate mode                          : Constant
Frame rate                               : 23.976 fps
Color space                              : YUV
Chroma subsampling                       : 4:2:0
Bit depth                                : 8 bits
Scan type                                : Progressive
Bits/(Pixel*Frame)                       : 0.070
Stream size                              : 579 MiB (82%)
Writing library                          : x264 core 65 r1077 e46f648
Encoding settings                        : cabac=0 / ref=1 / deblock=1:0:0 / 
Encoded date                             : UTC 2010-09-01 00:01:10
Tagged date                              : UTC 2010-09-01 00:04:41

Audio
ID                                       : 2
Format                                   : AAC
Format/Info                              : Advanced Audio Codec
Format profile                           : LC
Codec ID                                 : 40
Duration                                 : 2h 16mn
Bit rate mode                            : Variable
Bit rate                                 : 126 Kbps
Maximum bit rate                         : 185 Kbps
Channel(s)                               : 2 channels
Channel positions                        : Front: L R
Sampling rate                            : 44.1 KHz
Compression mode                         : Lossy
Stream size                              : 123 MiB (17%)
Encoded date                             : UTC 2010-09-01 00:04:27
Tagged date                              : UTC 2010-09-01 00:04:41
